<?xml version="1.0" standalone="no"?>
<!DOCTYPE svg PUBLIC "-//W3C//DTD SVG 20010904//EN"
 "http://www.w3.org/TR/2001/REC-SVG-20010904/DTD/svg10.dtd">
<svg version="1.0" xmlns="http://www.w3.org/2000/svg"
 width="431.000000pt" height="388.000000pt" viewBox="0 0 431.000000 388.000000"
 preserveAspectRatio="xMidYMid meet">

<g transform="translate(0.000000,388.000000) scale(0.100000,-0.100000)"
fill="#000000" stroke="none">
<path d="M941 3509 c-91 -18 -181 -92 -229 -188 l-27 -56 0 -1225 0 -1225 28
-57 c35 -72 93 -130 165 -165 l57 -28 1225 0 1225 0 59 29 c75 37 131 93 165
165 l26 56 0 1225 0 1225 -26 55 c-34 72 -97 136 -167 168 l-57 27 -1200 2
c-660 0 -1220 -3 -1244 -8z m1932 -542 c89 -42 147 -92 198 -170 61 -94 86
-206 69 -315 -45 -291 -352 -471 -623 -365 -219 86 -340 322 -282 548 22 82
58 144 122 208 101 101 201 139 350 133 80 -3 101 -8 166 -39z m-1366 -189
l133 -132 133 132 c109 109 137 132 161 132 39 0 66 -26 66 -64 0 -26 -20 -51
-132 -163 l-132 -133 132 -133 c113 -114 132 -138 132 -165 0 -19 -8 -39 -22
-52 -42 -39 -61 -29 -207 114 l-136 135 -136 -135 c-146 -144 -161 -152 -204
-109 -43 43 -35 58 110 204 l134 136 -134 136 c-106 106 -135 141 -135 162 0
37 33 67 72 67 27 0 50 -19 165 -132z m243 -799 c154 -35 282 -160 332 -322
55 -183 -23 -399 -182 -506 -91 -60 -147 -76 -270 -76 -100 0 -109 2 -181 36
-158 76 -247 199 -273 377 -17 114 38 266 131 363 115 121 272 166 443 128z
m799 -213 l136 -135 136 135 c146 144 161 152 204 109 44 -43 35 -59 -110
-204 l-134 -136 134 -136 c106 -106 135 -141 135 -162 0 -37 -33 -67 -72 -67
-27 0 -50 19 -165 132 l-133 132 -133 -132 c-109 -109 -137 -132 -161 -132
-39 0 -66 26 -66 64 0 26 20 51 132 163 l132 133 -132 133 c-109 110 -132 139
-132 163 0 16 4 34 8 40 11 16 44 33 66 34 10 0 76 -57 155 -134z"/>
<path d="M2564 2850 c-71 -28 -137 -89 -171 -158 -24 -50 -28 -69 -28 -147 0
-81 3 -95 30 -143 105 -191 346 -234 508 -93 20 18 51 63 69 99 62 126 38 270
-62 369 -64 63 -121 87 -215 90 -61 2 -92 -2 -131 -17z"/>
<path d="M1585 1851 c-106 -20 -189 -82 -236 -177 -28 -57 -33 -76 -33 -144 0
-64 5 -87 27 -132 33 -66 91 -127 155 -158 68 -34 179 -39 253 -11 75 29 141
88 176 159 24 50 28 69 28 147 0 78 -4 97 -27 141 -65 124 -212 199 -343 175z"/>
</g>
</svg>
